<svg class="icon" height="200" p-id="942" t="1591462258798"
                                 version="1.1" viewBox="0 0 1024 1024"
                                 width="200" xmlns="http://www.w3.org/2000/svg">
                                <path d="M 262.7 835 c -15.3 0 -28.1 -11.4 -29.8 -26.6 L 174.1 291 c -0.6 -5.1 1 -10.2 4.5 -14 s 8.3 -6 13.4 -6 h 640 c 5.1 0 10 2.2 13.4 6 s 5 8.9 4.5 14 l -58.8 517.4 c -1.7 15.2 -14.5 26.6 -29.8 26.6 H 262.7 Z"
                                      fill="#fcc66f"
                                      p-id="943"/>
                                <path d="M 802 289 l -58.8 517.4 c -0.7 6.1 -5.8 10.6 -11.9 10.6 h 30 c 6.1 0 11.2 -4.6 11.9 -10.6 L 832 289 h -30 Z"
                                      fill="#ffd79c"
                                      p-id="944"/>
                                <path d="M 164 307 c -16.5 0 -30 -13.5 -30 -30 v -58 c 0 -16.5 13.5 -30 30 -30 h 696 c 16.5 0 30 13.5 30 30 v 58 c 0 16.5 -13.5 30 -30 30 H 164 Z"
                                      fill="#f56e73"
                                      p-id="945"/>
                                <path d="M 860 207 h -30 c 6.6 0 12 5.4 12 12 v 58 c 0 6.6 -5.4 12 -12 12 h 30 c 6.6 0 12 -5.4 12 -12 v -58 c 0 -6.6 -5.4 -12 -12 -12 Z"
                                      fill="#ffa1a8"
                                      p-id="946"/>
                                <path d="M 190.9 651.5 c -31.4 0 -56.9 -25.5 -56.9 -56.9 V 219 c 0 -16.5 13.5 -30 30 -30 h 466.2 c 9.9 0 18 8.1 18 18 v 301.1 c 0 34.7 -28.2 62.9 -62.9 62.9 s -62.9 -28.2 -62.9 -62.9 V 393.5 c 0 -23.2 -18.8 -42 -42 -42 s -42 18.8 -42 42 v 68.1 c 0 29.4 -23.9 53.4 -53.4 53.4 s -53.4 -23.9 -53.4 -53.4 v -68.1 c 0 -23.2 -18.8 -42 -42 -42 s -42 18.8 -42 42 v 201.1 c 0.1 31.4 -25.4 56.9 -56.7 56.9 Z"
                                      fill="#65c8ff"
                                      p-id="947"/>
                                <path d="M 277.8 321.5 c -33.1 0 -60 26.9 -60 60 v 201.1 c 0 21.5 -17.4 38.9 -38.9 38.9 c -7.7 0 -14.8 -2.2 -20.8 -6.1 c 6.9 10.9 19 18.1 32.8 18.1 c 21.5 0 38.9 -17.4 38.9 -38.9 V 393.5 c 0 -33.1 26.9 -60 60 -60 c 13.5 0 25.9 4.5 36 12 c -11 -14.5 -28.4 -24 -48 -24 Z M 618.3 207 v 289.1 c 0 24.8 -20.1 44.9 -44.9 44.9 c -9.3 0 -18 -2.8 -25.2 -7.7 c 8.1 11.9 21.7 19.7 37.2 19.7 c 24.8 0 44.9 -20.1 44.9 -44.9 V 207 h -12 Z M 468.5 321.5 c -33.1 0 -60 26.9 -60 60 v 68.1 c 0 19.5 -15.8 35.4 -35.4 35.4 c -6.7 0 -12.9 -1.9 -18.3 -5.1 c 6.2 10.2 17.4 17.1 30.3 17.1 c 19.5 0 35.4 -15.8 35.4 -35.4 v -68.1 c 0 -33.1 26.9 -60 60 -60 c 13.5 0 25.9 4.5 36 12 c -11 -14.5 -28.4 -24 -48 -24 Z"
                                      fill="#b3eaff"
                                      p-id="948"/>
                                <path d="M 698 729.4 m -18 0 a 18 18 0 1 0 36 0 a 18 18 0 1 0 -36 0 Z" fill="#453b56"
                                      p-id="949"/>
                                <path d="M 860 171 H 632.5 v 0.1 c -0.7 0 -1.5 -0.1 -2.2 -0.1 H 164 c -26.5 0 -48 21.5 -48 48 v 375.6 c 0 41.3 33.6 74.9 74.9 74.9 c 2.7 0 5.4 -0.2 8.1 -0.5 l 16 141.4 c 2.8 24.3 23.3 42.6 47.7 42.6 h 498.6 c 24.4 0 44.9 -18.3 47.7 -42.6 l 55.2 -485.6 c 24.5 -2.1 43.8 -22.7 43.8 -47.8 v -58 c 0 -26.5 -21.5 -48 -48 -48 Z M 190.9 633.5 c -21.5 0 -38.9 -17.4 -38.9 -38.9 V 219 c 0 -6.6 5.4 -12 12 -12 h 466.3 v 301.1 c 0 24.8 -20.1 44.9 -44.9 44.9 c -24.8 0 -44.9 -20.1 -44.9 -44.9 V 393.5 c 0 -33.1 -26.9 -60 -60 -60 s -60 26.9 -60 60 v 68.1 c 0 19.5 -15.8 35.4 -35.4 35.4 c -19.5 0 -35.4 -15.8 -35.4 -35.4 v -68.1 c 0 -33.1 -26.9 -60 -60 -60 s -60 26.9 -60 60 v 201.1 c 0.1 21.5 -17.4 38.9 -38.8 38.9 Z m 582.3 172.9 c -0.7 6.1 -5.8 10.6 -11.9 10.6 H 262.7 c -6.1 0 -11.2 -4.6 -11.9 -10.6 l -6.7 -59 h 396.6 c 9.9 0 18 -8.1 18 -18 s -8.1 -18 -18 -18 H 240 l -6.3 -55.4 c 19.3 -13.6 32.1 -36 32.1 -61.3 V 393.5 c 0 -13.2 10.8 -24 24 -24 s 24 10.8 24 24 v 68.1 c 0 39.4 32 71.4 71.4 71.4 s 71.4 -32 71.4 -71.4 v -68.1 c 0 -13.2 10.8 -24 24 -24 s 24 10.8 24 24 v 114.6 c 0 44.6 36.3 80.9 80.9 80.9 c 44.6 0 80.9 -36.3 80.9 -80.9 V 325 h 161.7 l -54.9 481.4 Z M 872 277 c 0 6.6 -5.4 12 -12 12 H 666.3 v -82 H 860 c 6.6 0 12 5.4 12 12 v 58 Z"
                                      fill="#453b56"
                                      p-id="950"/>
                            </svg>