<svg class="icon" height="200" p-id="3311" t="1591462464512"
                                 version="1.1"
                                 viewBox="0 0 1024 1024" width="200" xmlns="http://www.w3.org/2000/svg">
                                <path d="M750.4 216.5h-130v-15.3c0-32.9-26.8-59.7-59.7-59.7h-97.3c-32.9 0-59.7 26.8-59.7 59.7v15.3h-130c-30.7 0-55.6 25-55.6 55.6v72.4c0 9.9 8.1 18 18 18h31.5v478c0 23.2 18.8 42 42 42h405c23.2 0 42-18.8 42-42v-478H788c9.9 0 18-8.1 18-18v-72.4c0-30.6-25-55.6-55.6-55.6z"
                                      fill="#FCC66F" p-id="3312"></path>
                                <path d="M708.5 344.5v496c0 13.3-10.7 24-24 24h30c13.3 0 24-10.7 24-24v-496h-30z"
                                      fill="#FFD79C" p-id="3313"></path>
                                <path d="M309.5 882.5c-23.2 0-42-18.8-42-42V596c0-9.9 8.1-18 18-18h36.8c30.2 0 54.8 24.6 54.8 54.8v231.7c0 9.9-8.1 18-18 18h-49.6zM664.9 882.5c-9.9 0-18-8.1-18-18V632.8c0-30.2 24.6-54.8 54.8-54.8h36.8c9.9 0 18 8.1 18 18v244.5c0 23.2-18.8 42-42 42h-49.6z"
                                      fill="#F56E73" p-id="3314"></path>
                                <path d="M708.5 596v244.5c0 13.3-10.7 24-24 24h30c13.3 0 24-10.7 24-24V596h-30z"
                                      fill="#FFA1A8" p-id="3315"></path>
                                <path d="M475.2 882.5c-9.9 0-18-8.1-18-18V632.8c0-30.2 24.6-54.8 54.8-54.8 30.2 0 54.8 24.6 54.8 54.8v231.7c0 9.9-8.1 18-18 18h-73.6z"
                                      fill="#F56E73" p-id="3316"></path>
                                <path d="M560.7 159.5h-18c23 0 41.7 18.7 41.7 41.7V221h18v-19.8c-0.1-23-18.7-41.7-41.7-41.7zM750.4 234.5h-30c20.8 0 37.6 16.8 37.6 37.6v72.4h30v-72.4c0-20.8-16.8-37.6-37.6-37.6z"
                                      fill="#FFD79C" p-id="3317"></path>
                                <path d="M750.4 198.5H638.2c-1.4-41.6-35.6-75-77.5-75h-97.3c-41.9 0-76.1 33.4-77.5 75H273.6c-40.6 0-73.6 33-73.6 73.6v72.4c0 19.9 16.1 36 36 36h13.5v460c0 33.1 26.9 60 60 60H714.7c33.1 0 60-26.9 60-60v-460H788c19.9 0 36-16.1 36-36v-72.4c0-40.6-33-73.6-73.6-73.6z m-287.1-39h97.3c22.1 0 40.2 17.2 41.5 39H421.8c1.4-21.8 19.4-39 41.5-39z m-104.2 705h-49.6c-13.3 0-24-10.7-24-24V596h36.8c20.3 0 36.8 16.5 36.8 36.8v231.7z m189.7 0h-73.6V632.8c0-20.3 16.5-36.8 36.8-36.8 20.3 0 36.8 16.5 36.8 36.8v231.7z m189.7-24c0 13.3-10.7 24-24 24h-49.6V632.8c0-20.3 16.5-36.8 36.8-36.8h36.8v244.5z m0-280.5h-36.8c-40.1 0-72.8 32.6-72.8 72.8v231.7h-44.2V632.8c0-40.1-32.6-72.8-72.8-72.8-40.1 0-72.8 32.6-72.8 72.8v231.7h-44.2V632.8c0-40.1-32.6-72.8-72.8-72.8h-36.8v-74.5h279c9.9 0 18-8.1 18-18s-8.1-18-18-18h-279v-69h453V560zM788 344.5H236v-72.4c0-20.8 16.8-37.6 37.6-37.6h476.8c20.8 0 37.6 16.8 37.6 37.6v72.4z"
                                      fill="#453B56" p-id="3318"></path>
                                <path d="M621.8 467.5m-18 0a18 18 0 1 0 36 0 18 18 0 1 0-36 0Z" fill="#453B56"
                                      p-id="3319"></path>
                            </svg>