<svg  class="icon" height="200" p-id="3449" t="1591462491887"
                                 version="1.1"
                                 viewBox="0 0 1024 1024" width="200" xmlns="http://www.w3.org/2000/svg">
                                <path d="M363.2 807c-9.9 0-18-8.1-18-18v-75.5c0-9.9 8.1-18 18-18h108.5c9.9 0 18 8.1 18 18V789c0 9.9-8.1 18-18 18H363.2z"
                                      fill="#F56E73" p-id="3450"></path>
                                <path d="M441.7 713.5h30V789h-30z" fill="#FFA1A8" p-id="3451"></path>
                                <path d="M259.6 398c-9.9 0-18-8.1-18-18V178.6c0-23.8 19.3-43.1 43.1-43.1s43.1 19.3 43.1 43.1V380c0 9.9-8.1 18-18 18h-50.2zM525.1 398c-9.9 0-18-8.1-18-18V178.6c0-23.8 19.3-43.1 43.1-43.1s43.1 19.3 43.1 43.1V380c0 9.9-8.1 18-18 18h-50.2z"
                                      fill="#65C8FF" p-id="3452"></path>
                                <path d="M550.2 153.5c-3.2 0-6.2 0.7-9 1.7 9.4 3.6 16.1 12.7 16.1 23.4V380h18V178.6c0.1-13.9-11.2-25.1-25.1-25.1z"
                                      fill="#97DCFF" p-id="3453"></path>
                                <path d="M686 330.5H149c-9.9 0-18 8.1-18 18v63c0 9.9 8.1 18 18 18h33.2l45 225c8.7 43.4 47.1 75 91.4 75h197.6c44.3 0 82.7-31.5 91.4-75l45-225H686c9.9 0 18-8.1 18-18v-63c0-9.9-8.1-18-18-18z"
                                      fill="#FCC66F" p-id="3454"></path>
                                <path d="M608 411.5L560.1 651c-7 35.2-37.9 60.5-73.8 60.5h30c35.9 0 66.7-25.3 73.8-60.5L638 411.5h-30zM656 348.5h30v63h-30z"
                                      fill="#FFD79C" p-id="3455"></path>
                                <path d="M474.2 543.5m-18 0a18 18 0 1 0 36 0 18 18 0 1 0-36 0Z" fill="#453B56"
                                      p-id="3456"></path>
                                <path d="M416.9 525.5h-125c-9.9 0-18 8.1-18 18s8.1 18 18 18h125c9.9 0 18-8.1 18-18s-8.1-18-18-18zM893 543.5h-33.4c-65.2 0-118.2 53-118.2 118.2v19.6c0 9.9 8.1 18 18 18s18-8.1 18-18v-19.6c0-45.3 36.9-82.2 82.2-82.2H893c9.9 0 18-8.1 18-18s-8-18-18-18zM772.2 744.2c7-7 7-18.4 0-25.5-7-7-18.4-7-25.5 0s-7 18.4 0 25.5 18.4 7.1 25.5 0z"
                                      fill="#453B56" p-id="3457"></path>
                                <path d="M759.5 761.6c-9.9 0-18 8.1-18 18v11.6c0 43.7-35.6 79.3-79.3 79.3H487.3c-26.4 0-48.3-19.9-51.4-45.5h35.8c19.9 0 36-16.1 36-36v-41.5h8.6c52.8 0 98.7-37.6 109.1-89.4l42.1-210.6H686c19.9 0 36-16.1 36-36v-63c0-19.9-16.1-36-36-36h-74.6V178.6c0-33.7-27.4-61.1-61.1-61.1s-61.1 27.4-61.1 61.1v133.9H345.9V178.6c0-33.7-27.4-61.1-61.1-61.1s-61.1 27.4-61.1 61.1v133.9H149c-19.9 0-36 16.1-36 36v63c0 19.9 16.1 36 36 36h18.5l42.1 210.6c10.4 51.8 56.2 89.4 109.1 89.4h8.6V789c0 19.9 16.1 36 36 36h36.6c3.3 45.5 41.2 81.5 87.5 81.5h174.8c63.6 0 115.3-51.7 115.3-115.3v-11.6c0-10-8.1-18-18-18z m-234.4-583c0-13.9 11.2-25.1 25.1-25.1s25.1 11.2 25.1 25.1v133.9H525V178.6z m-265.5 0c0-13.9 11.2-25.1 25.1-25.1s25.1 11.2 25.1 25.1v133.9h-50.3V178.6zM149 411.5v-63h537v63H149z m169.7 300c-35.9 0-66.7-25.3-73.8-60.5l-40.7-203.5h426.6L590.1 651c-7 35.2-37.9 60.5-73.8 60.5H318.7z m44.5 77.5v-41.5h108.5V789H363.2z"
                                      fill="#453B56" p-id="3458"></path>
                            </svg>